<svg xmlns="http://www.w3.org/2000/svg" xmlns:xlink="http://www.w3.org/1999/xlink" contentStyleType="text/css" data-diagram-type="DESCRIPTION" height="2178px" preserveAspectRatio="none" style="width:1043px;height:2178px;background:#F8FAFC;" version="1.1" viewBox="0 0 1043 2178" width="1043px" zoomAndPan="magnify"><?plantuml 1.2026.7beta1?><defs/><g><rect fill="#F8FAFC" height="2178" style="stroke:none;stroke-width:1;" width="1043" x="0" y="0"/><g class="title" data-source-line="16"><text fill="#000000" font-family="Verdana" font-size="22" font-weight="700" lengthAdjust="spacing" textLength="680.4854" x="180.4423" y="35.4209">MyClassroom &#8212; &#1076;&#1080;&#1072;&#1075;&#1088;&#1072;&#1084;&#1084;&#1072; &#1074;&#1072;&#1088;&#1080;&#1072;&#1085;&#1090;&#1086;&#1074; &#1080;&#1089;&#1087;&#1086;&#1083;&#1100;&#1079;&#1086;&#1074;&#1072;&#1085;&#1080;&#1103;</text></g><!--cluster MyClassroom--><g class="cluster" data-qualified-name="MyClassroom" data-source-line="24" id="ent0004"><rect fill="#FFFFFF" height="1191" rx="2.5" ry="2.5" style="stroke:#0369A1;stroke-width:1;" width="856.57" x="172.8" y="452.2594"/><text fill="#000000" font-family="Verdana" font-size="14" font-weight="700" lengthAdjust="spacing" textLength="104.9727" x="548.5987" y="467.2545">MyClassroom</text></g><!--cluster ???????????--><g class="cluster" data-qualified-name="MyClassroom............" data-source-line="26" id="ent0005"><path d="M222.73,823.2594 L342.605,823.2594 A3.75,3.75 0 0 1 345.105,825.7594 L352.105,847.8844 L398.68,847.8844 A2.5,2.5 0 0 1 401.18,850.3844 L401.18,1036.7594 A2.5,2.5 0 0 1 398.68,1039.2594 L222.73,1039.2594 A2.5,2.5 0 0 1 220.23,1036.7594 L220.23,825.7594 A2.5,2.5 0 0 1 222.73,823.2594" fill="#F1F5F9" style="stroke:#0369A1;stroke-width:1;"/><line style="stroke:#0369A1;stroke-width:1;" x1="220.23" x2="352.105" y1="847.8844" y2="847.8844"/><text fill="#000000" font-family="Verdana" font-size="16" font-weight="700" lengthAdjust="spacing" textLength="118.875" x="224.23" y="840.1109">&#1040;&#1074;&#1090;&#1086;&#1088;&#1080;&#1079;&#1072;&#1094;&#1080;&#1103;</text></g><!--cluster ???????? ????????--><g class="cluster" data-qualified-name="MyClassroom......... ........" data-source-line="32" id="ent0009"><path d="M199.3,1302.2594 L380.1438,1302.2594 A3.75,3.75 0 0 1 382.6438,1304.7594 L389.6438,1326.8844 L422.11,1326.8844 A2.5,2.5 0 0 1 424.61,1329.3844 L424.61,1616.7594 A2.5,2.5 0 0 1 422.11,1619.2594 L199.3,1619.2594 A2.5,2.5 0 0 1 196.8,1616.7594 L196.8,1304.7594 A2.5,2.5 0 0 1 199.3,1302.2594" fill="#F1F5F9" style="stroke:#0369A1;stroke-width:1;"/><line style="stroke:#0369A1;stroke-width:1;" x1="196.8" x2="389.6438" y1="1326.8844" y2="1326.8844"/><text fill="#000000" font-family="Verdana" font-size="16" font-weight="700" lengthAdjust="spacing" textLength="179.8438" x="200.8" y="1319.1109">&#1055;&#1088;&#1086;&#1089;&#1084;&#1086;&#1090;&#1088; &#1082;&#1086;&#1085;&#1090;&#1077;&#1085;&#1090;&#1072;</text></g><!--cluster ????????--><g class="cluster" data-qualified-name="MyClassroom........." data-source-line="39" id="ent0014"><path d="M226.4,1063.2594 L317.5563,1063.2594 A3.75,3.75 0 0 1 320.0563,1065.7594 L327.0563,1087.8844 L1002.87,1087.8844 A2.5,2.5 0 0 1 1005.37,1090.3844 L1005.37,1275.7594 A2.5,2.5 0 0 1 1002.87,1278.2594 L226.4,1278.2594 A2.5,2.5 0 0 1 223.9,1275.7594 L223.9,1065.7594 A2.5,2.5 0 0 1 226.4,1063.2594" fill="#F1F5F9" style="stroke:#0369A1;stroke-width:1;"/><line style="stroke:#0369A1;stroke-width:1;" x1="223.9" x2="327.0563" y1="1087.8844" y2="1087.8844"/><text fill="#000000" font-family="Verdana" font-size="16" font-weight="700" lengthAdjust="spacing" textLength="90.1563" x="227.9" y="1080.1109">&#1054;&#1073;&#1091;&#1095;&#1077;&#1085;&#1080;&#1077;</text></g><!--cluster ??????????--><g class="cluster" data-qualified-name="MyClassroom..........." data-source-line="48" id="ent0021"><path d="M524.11,1394.2594 L638.4225,1394.2594 A3.75,3.75 0 0 1 640.9225,1396.7594 L647.9225,1418.8844 L745.8,1418.8844 A2.5,2.5 0 0 1 748.3,1421.3844 L748.3,1616.7594 A2.5,2.5 0 0 1 745.8,1619.2594 L524.11,1619.2594 A2.5,2.5 0 0 1 521.61,1616.7594 L521.61,1396.7594 A2.5,2.5 0 0 1 524.11,1394.2594" fill="#F1F5F9" style="stroke:#0369A1;stroke-width:1;"/><line style="stroke:#0369A1;stroke-width:1;" x1="521.61" x2="647.9225" y1="1418.8844" y2="1418.8844"/><text fill="#000000" font-family="Verdana" font-size="16" font-weight="700" lengthAdjust="spacing" textLength="113.3125" x="525.61" y="1411.1109">&#1057;&#1086;&#1086;&#1073;&#1097;&#1077;&#1089;&#1090;&#1074;&#1086;</text></g><!--cluster ????????????--><g class="cluster" data-qualified-name="MyClassroom............." data-source-line="54" id="ent0025"><path d="M205.96,495.2594 L342.46,495.2594 A3.75,3.75 0 0 1 344.96,497.7594 L351.96,519.8844 L730.79,519.8844 A2.5,2.5 0 0 1 733.29,522.3844 L733.29,796.7594 A2.5,2.5 0 0 1 730.79,799.2594 L205.96,799.2594 A2.5,2.5 0 0 1 203.46,796.7594 L203.46,497.7594 A2.5,2.5 0 0 1 205.96,495.2594" fill="#ECFDF5" style="stroke:#0369A1;stroke-width:1;"/><line style="stroke:#0369A1;stroke-width:1;" x1="203.46" x2="351.96" y1="519.8844" y2="519.8844"/><text fill="#000000" font-family="Verdana" font-size="16" font-weight="700" lengthAdjust="spacing" textLength="135.5" x="207.46" y="512.1109">&#1055;&#1088;&#1077;&#1087;&#1086;&#1076;&#1072;&#1074;&#1072;&#1085;&#1080;&#1077;</text></g><!--entity UC_Reg--><g class="entity" data-qualified-name="MyClassroom.............UC_Reg" data-source-line="27" id="ent0006"><ellipse cx="310.715" cy="1008.2624" fill="#E0F2FE" rx="60.715" ry="14.543" style="stroke:#0284C7;stroke-width:1;"/><text fill="#000000" font-family="Verdana" font-size="13" lengthAdjust="spacing" textLength="87.1724" x="267.1288" y="1012.3288">&#1056;&#1077;&#1075;&#1080;&#1089;&#1090;&#1088;&#1072;&#1094;&#1080;&#1103;</text></g><!--entity UC_Login--><g class="entity" data-qualified-name="MyClassroom.............UC_Login" data-source-line="28" id="ent0007"><ellipse cx="310.7062" cy="944.2586" fill="#E0F2FE" rx="61.7962" ry="14.7592" style="stroke:#0284C7;stroke-width:1;"/><text fill="#000000" font-family="Verdana" font-size="13" lengthAdjust="spacing" textLength="90.0161" x="265.6981" y="948.325">&#1042;&#1093;&#1086;&#1076; / &#1042;&#1099;&#1093;&#1086;&#1076;</text></g><!--entity UC_Avatar--><g class="entity" data-qualified-name="MyClassroom.............UC_Avatar" data-source-line="29" id="ent0008"><ellipse cx="310.7082" cy="877.255" fill="#E0F2FE" rx="74.4782" ry="17.2956" style="stroke:#0284C7;stroke-width:1;"/><text fill="#000000" font-family="Verdana" font-size="13" lengthAdjust="spacing" textLength="121.291" x="250.0627" y="881.3214">&#1047;&#1072;&#1075;&#1088;&#1091;&#1079;&#1082;&#1072; &#1072;&#1074;&#1072;&#1090;&#1072;&#1088;&#1072;</text></g><!--entity UC_Home--><g class="entity" data-qualified-name="MyClassroom......... .........UC_Home" data-source-line="33" id="ent0010"><ellipse cx="310.712" cy="1507.2598" fill="#E0F2FE" rx="76.052" ry="17.6104" style="stroke:#0284C7;stroke-width:1;"/><text fill="#000000" font-family="Verdana" font-size="13" lengthAdjust="spacing" textLength="124.9854" x="248.2193" y="1511.3262">&#1043;&#1083;&#1072;&#1074;&#1085;&#1072;&#1103; &#1089;&#1090;&#1088;&#1072;&#1085;&#1080;&#1094;&#1072;</text></g><!--entity UC_Library--><g class="entity" data-qualified-name="MyClassroom......... .........UC_Library" data-source-line="34" id="ent0011"><ellipse cx="310.711" cy="1357.2596" fill="#E0F2FE" rx="79.151" ry="18.2302" style="stroke:#0284C7;stroke-width:1;"/><text fill="#000000" font-family="Verdana" font-size="13" lengthAdjust="spacing" textLength="132.1772" x="244.6223" y="1361.326">&#1041;&#1080;&#1073;&#1083;&#1080;&#1086;&#1090;&#1077;&#1082;&#1072; &#1082;&#1091;&#1088;&#1089;&#1086;&#1074;</text></g><!--entity UC_Teachers--><g class="entity" data-qualified-name="MyClassroom......... .........UC_Teachers" data-source-line="35" id="ent0012"><ellipse cx="310.7126" cy="1432.2599" fill="#E0F2FE" rx="97.9026" ry="21.9805" style="stroke:#0284C7;stroke-width:1;"/><text fill="#000000" font-family="Verdana" font-size="13" lengthAdjust="spacing" textLength="174.0718" x="223.6767" y="1436.3263">&#1050;&#1072;&#1090;&#1072;&#1083;&#1086;&#1075; &#1087;&#1088;&#1077;&#1087;&#1086;&#1076;&#1072;&#1074;&#1072;&#1090;&#1077;&#1083;&#1077;&#1081;</text></g><!--entity UC_TProfile--><g class="entity" data-qualified-name="MyClassroom......... .........UC_TProfile" data-source-line="36" id="ent0013"><ellipse cx="310.7068" cy="1581.2607" fill="#E0F2FE" rx="96.5568" ry="21.7114" style="stroke:#0284C7;stroke-width:1;"/><text fill="#000000" font-family="Verdana" font-size="13" lengthAdjust="spacing" textLength="171.1328" x="225.1404" y="1585.3271">&#1055;&#1088;&#1086;&#1092;&#1080;&#1083;&#1100; &#1087;&#1088;&#1077;&#1087;&#1086;&#1076;&#1072;&#1074;&#1072;&#1090;&#1077;&#1083;&#1103;</text></g><!--entity UC_Enroll--><g class="entity" data-qualified-name="MyClassroom..........UC_Enroll" data-source-line="40" id="ent0015"><ellipse cx="310.7083" cy="1116.259" fill="#E0F2FE" rx="67.1983" ry="15.8397" style="stroke:#0284C7;stroke-width:1;"/><text fill="#000000" font-family="Verdana" font-size="13" lengthAdjust="spacing" textLength="103.7334" x="258.8416" y="1120.3254">&#1047;&#1072;&#1087;&#1080;&#1089;&#1100; &#1085;&#1072; &#1082;&#1091;&#1088;&#1089;</text></g><!--entity UC_Learn--><g class="entity" data-qualified-name="MyClassroom..........UC_Learn" data-source-line="41" id="ent0016"><ellipse cx="634.9531" cy="1170.262" fill="#E0F2FE" rx="85.5631" ry="19.5126" style="stroke:#0284C7;stroke-width:1;"/><text fill="#000000" font-family="Verdana" font-size="13" lengthAdjust="spacing" textLength="146.7705" x="561.5678" y="1174.3284">&#1055;&#1088;&#1086;&#1093;&#1086;&#1078;&#1076;&#1077;&#1085;&#1080;&#1077; &#1091;&#1088;&#1086;&#1082;&#1086;&#1074;</text></g><!--entity UC_Active--><g class="entity" data-qualified-name="MyClassroom..........UC_Active" data-source-line="42" id="ent0017"><ellipse cx="310.7118" cy="1183.2597" fill="#E0F2FE" rx="70.8018" ry="16.5604" style="stroke:#0284C7;stroke-width:1;"/><text fill="#000000" font-family="Verdana" font-size="13" lengthAdjust="spacing" textLength="112.5313" x="254.4462" y="1187.3261">&#1040;&#1082;&#1090;&#1080;&#1074;&#1085;&#1099;&#1077; &#1082;&#1091;&#1088;&#1089;&#1099;</text></g><!--entity UC_Bookmarks--><g class="entity" data-qualified-name="MyClassroom..........UC_Bookmarks" data-source-line="43" id="ent0018"><ellipse cx="310.7091" cy="1248.2599" fill="#E0F2FE" rx="49.4691" ry="13.7005" style="stroke:#0284C7;stroke-width:1;"/><text fill="#000000" font-family="Verdana" font-size="13" lengthAdjust="spacing" textLength="65.7173" x="277.8505" y="1252.3263">&#1047;&#1072;&#1082;&#1083;&#1072;&#1076;&#1082;&#1080;</text></g><!--entity UC_CReview--><g class="entity" data-qualified-name="MyClassroom..........UC_CReview" data-source-line="44" id="ent0019"><ellipse cx="924.3315" cy="1174.2557" fill="#E0F2FE" rx="65.0315" ry="15.4063" style="stroke:#0284C7;stroke-width:1;"/><text fill="#000000" font-family="Verdana" font-size="13" lengthAdjust="spacing" textLength="98.3188" x="875.1721" y="1178.3221">&#1054;&#1090;&#1079;&#1099;&#1074; &#1085;&#1072; &#1082;&#1091;&#1088;&#1089;</text></g><!--entity UC_Cert--><g class="entity" data-qualified-name="MyClassroom..........UC_Cert" data-source-line="45" id="ent0020"><ellipse cx="924.3294" cy="1242.2573" fill="#E0F2FE" rx="59.6394" ry="14.3279" style="stroke:#0284C7;stroke-width:1;"/><text fill="#000000" font-family="Verdana" font-size="13" lengthAdjust="spacing" textLength="84.3032" x="882.1778" y="1246.3237">&#1057;&#1077;&#1088;&#1090;&#1080;&#1092;&#1080;&#1082;&#1072;&#1090;</text></g><!--entity UC_Forum--><g class="entity" data-qualified-name="MyClassroom............UC_Forum" data-source-line="49" id="ent0022"><ellipse cx="634.947" cy="1445.2599" fill="#E0F2FE" rx="34.747" ry="13.7005" style="stroke:#0284C7;stroke-width:1;"/><text fill="#000000" font-family="Verdana" font-size="13" lengthAdjust="spacing" textLength="44.897" x="612.4985" y="1449.3263">&#1060;&#1086;&#1088;&#1091;&#1084;</text></g><!--entity UC_Notify--><g class="entity" data-qualified-name="MyClassroom............UC_Notify" data-source-line="50" id="ent0023"><ellipse cx="634.9499" cy="1509.2554" fill="#E0F2FE" rx="62.3299" ry="14.866" style="stroke:#0284C7;stroke-width:1;"/><text fill="#000000" font-family="Verdana" font-size="13" lengthAdjust="spacing" textLength="91.4063" x="589.2468" y="1513.3218">&#1059;&#1074;&#1077;&#1076;&#1086;&#1084;&#1083;&#1077;&#1085;&#1080;&#1103;</text></g><!--entity UC_TReview--><g class="entity" data-qualified-name="MyClassroom............UC_TReview" data-source-line="51" id="ent0024"><ellipse cx="634.947" cy="1581.2588" fill="#E0F2FE" rx="97.347" ry="21.8694" style="stroke:#0284C7;stroke-width:1;"/><text fill="#000000" font-family="Verdana" font-size="13" lengthAdjust="spacing" textLength="172.8594" x="548.5173" y="1585.3252">&#1054;&#1090;&#1079;&#1099;&#1074; &#1085;&#1072; &#1087;&#1088;&#1077;&#1087;&#1086;&#1076;&#1072;&#1074;&#1072;&#1090;&#1077;&#1083;&#1103;</text></g><!--entity UC_Become--><g class="entity" data-qualified-name="MyClassroom..............UC_Become" data-source-line="55" id="ent0026"><ellipse cx="310.7073" cy="762.2588" fill="#E0F2FE" rx="91.2473" ry="20.6495" style="stroke:#0284C7;stroke-width:1;"/><text fill="#000000" font-family="Verdana" font-size="13" lengthAdjust="spacing" textLength="159.4531" x="230.9807" y="766.3252">&#1057;&#1090;&#1072;&#1090;&#1100; &#1087;&#1088;&#1077;&#1087;&#1086;&#1076;&#1072;&#1074;&#1072;&#1090;&#1077;&#1083;&#1077;&#1084;</text></g><!--entity UC_Create--><g class="entity" data-qualified-name="MyClassroom..............UC_Create" data-source-line="56" id="ent0027"><ellipse cx="310.7078" cy="617.2589" fill="#E0F2FE" rx="69.2978" ry="16.2596" style="stroke:#0284C7;stroke-width:1;"/><text fill="#000000" font-family="Verdana" font-size="13" lengthAdjust="spacing" textLength="108.8877" x="256.2639" y="621.3253">&#1057;&#1086;&#1079;&#1076;&#1072;&#1085;&#1080;&#1077; &#1082;&#1091;&#1088;&#1089;&#1072;</text></g><!--entity UC_Builder--><g class="entity" data-qualified-name="MyClassroom..............UC_Builder" data-source-line="57" id="ent0028"><ellipse cx="634.9493" cy="551.2572" fill="#E0F2FE" rx="82.3393" ry="18.8679" style="stroke:#0284C7;stroke-width:1;"/><text fill="#000000" font-family="Verdana" font-size="13" lengthAdjust="spacing" textLength="139.4771" x="565.2108" y="555.3236">&#1050;&#1086;&#1085;&#1089;&#1090;&#1088;&#1091;&#1082;&#1090;&#1086;&#1088; &#1091;&#1088;&#1086;&#1082;&#1086;&#1074;</text></g><!--entity UC_Manage--><g class="entity" data-qualified-name="MyClassroom..............UC_Manage" data-source-line="58" id="ent0029"><ellipse cx="310.7075" cy="687.2549" fill="#E0F2FE" rx="83.8275" ry="19.1655" style="stroke:#0284C7;stroke-width:1;"/><text fill="#000000" font-family="Verdana" font-size="13" lengthAdjust="spacing" textLength="142.854" x="239.2805" y="691.3213">&#1059;&#1087;&#1088;&#1072;&#1074;&#1083;&#1077;&#1085;&#1080;&#1077; &#1082;&#1091;&#1088;&#1089;&#1072;&#1084;&#1080;</text></g><!--entity UC_Grade--><g class="entity" data-qualified-name="MyClassroom..............UC_Grade" data-source-line="59" id="ent0030"><ellipse cx="634.9526" cy="621.2579" fill="#E0F2FE" rx="69.5926" ry="16.3185" style="stroke:#0284C7;stroke-width:1;"/><text fill="#000000" font-family="Verdana" font-size="13" lengthAdjust="spacing" textLength="109.605" x="580.1501" y="625.3243">&#1055;&#1088;&#1086;&#1074;&#1077;&#1088;&#1082;&#1072; &#1088;&#1072;&#1073;&#1086;&#1090;</text></g><!--entity UC_Analytics--><g class="entity" data-qualified-name="MyClassroom..............UC_Analytics" data-source-line="60" id="ent0031"><ellipse cx="634.9472" cy="689.2628" fill="#E0F2FE" rx="72.6672" ry="16.9334" style="stroke:#0284C7;stroke-width:1;"/><text fill="#000000" font-family="Verdana" font-size="13" lengthAdjust="spacing" textLength="117" x="576.4472" y="693.3292">&#1040;&#1085;&#1072;&#1083;&#1080;&#1090;&#1080;&#1082;&#1072; &#1082;&#1091;&#1088;&#1089;&#1072;</text></g><!--entity UC_TAccount--><g class="entity" data-qualified-name="MyClassroom..............UC_TAccount" data-source-line="61" id="ent0032"><ellipse cx="310.7076" cy="549.2589" fill="#E0F2FE" rx="71.2476" ry="16.6495" style="stroke:#0284C7;stroke-width:1;"/><text fill="#000000" font-family="Verdana" font-size="13" lengthAdjust="spacing" textLength="113.604" x="253.9056" y="553.3253">&#1051;&#1080;&#1095;&#1085;&#1099;&#1081; &#1082;&#1072;&#1073;&#1080;&#1085;&#1077;&#1090;</text></g><!--entity Guest--><g class="entity" data-qualified-name="Guest" data-source-line="20" id="ent0001"><ellipse cx="68.4" cy="1337.1094" fill="#FFFFFF" rx="16" ry="16" style="stroke:#000000;stroke-width:1;"/><path d="M68.4,1357.1094 C72.4,1357.1094 75.4,1357.1094 79.4,1353.1094 C87.4,1353.1094 95.4,1361.1094 95.4,1369.1094 L95.4,1373.1094 C95.4,1377.1094 91.4,1381.1094 87.4,1381.1094 L49.4,1381.1094 C45.4,1381.1094 41.4,1377.1094 41.4,1373.1094 L41.4,1369.1094 C41.4,1361.1094 49.4,1353.1094 57.4,1353.1094 C61.4,1357.1094 64.4,1357.1094 68.4,1357.1094" fill="#FFFFFF" style="stroke:#000000;stroke-width:1;"/><text fill="#000000" font-family="Verdana" font-size="14" lengthAdjust="spacing" textLength="41.207" x="47.7965" y="1395.1045">&#1043;&#1086;&#1089;&#1090;&#1100;</text></g><!--entity Student--><g class="entity" data-qualified-name="Student" data-source-line="21" id="ent0002"><ellipse cx="68.3987" cy="1501.1094" fill="#FFFFFF" rx="16" ry="16" style="stroke:#000000;stroke-width:1;"/><path d="M68.3987,1521.1094 C72.3987,1521.1094 75.3987,1521.1094 79.3987,1517.1094 C87.3987,1517.1094 95.3987,1525.1094 95.3987,1533.1094 L95.3987,1537.1094 C95.3987,1541.1094 91.3987,1545.1094 87.3987,1545.1094 L49.3987,1545.1094 C45.3987,1545.1094 41.3987,1541.1094 41.3987,1537.1094 L41.3987,1533.1094 C41.3987,1525.1094 49.3987,1517.1094 57.3987,1517.1094 C61.3987,1521.1094 64.3987,1521.1094 68.3987,1521.1094" fill="#FFFFFF" style="stroke:#000000;stroke-width:1;"/><text fill="#000000" font-family="Verdana" font-size="14" lengthAdjust="spacing" textLength="61.8174" x="37.49" y="1559.1045">&#1057;&#1090;&#1091;&#1076;&#1077;&#1085;&#1090;</text></g><!--entity Teacher--><g class="entity" data-qualified-name="Teacher" data-source-line="22" id="ent0003"><ellipse cx="68.4014" cy="595.1094" fill="#FFFFFF" rx="16" ry="16" style="stroke:#000000;stroke-width:1;"/><path d="M68.4014,615.1094 C72.4014,615.1094 75.4014,615.1094 79.4014,611.1094 C87.4014,611.1094 95.4014,619.1094 95.4014,627.1094 L95.4014,631.1094 C95.4014,635.1094 91.4014,639.1094 87.4014,639.1094 L49.4014,639.1094 C45.4014,639.1094 41.4014,635.1094 41.4014,631.1094 L41.4014,627.1094 C41.4014,619.1094 49.4014,611.1094 57.4014,611.1094 C61.4014,615.1094 64.4014,615.1094 68.4014,615.1094" fill="#FFFFFF" style="stroke:#000000;stroke-width:1;"/><text fill="#000000" font-family="Verdana" font-size="14" lengthAdjust="spacing" textLength="114.8027" x="11" y="653.1045">&#1055;&#1088;&#1077;&#1087;&#1086;&#1076;&#1072;&#1074;&#1072;&#1090;&#1077;&#1083;&#1100;</text></g><!--link Guest to UC_Login--><g class="link" data-entity-1="ent0001" data-entity-2="ent0007" data-link-type="dependency" data-source-line="66" id="lnk33"><path d="M71.21,1319.7794 C76.53,1223.2194 95.77,979.4094 155.8,930.2594 C191.2,901.2794 243.0812,915.2187 276.8912,929.0287" fill="none" id="Guest-to-UC_Login" style="stroke:#000000;stroke-width:1;"/><polygon fill="#000000" points="281.52,930.9194,274.7008,923.8132,276.8912,929.0287,271.6757,931.2192,281.52,930.9194" style="stroke:#000000;stroke-width:1;stroke-linejoin:miter;stroke-miterlimit:10;"/></g><!--link Guest to UC_Reg--><g class="link" data-entity-1="ent0001" data-entity-2="ent0006" data-link-type="dependency" data-source-line="67" id="lnk34"><path d="M73.32,1319.8194 C82.4,1237.2694 107.87,1050.7294 155.8,1012.2594 C187.49,986.8294 230.9003,989.193 264.9303,996.113" fill="none" id="Guest-to-UC_Reg" style="stroke:#000000;stroke-width:1;"/><polygon fill="#000000" points="269.83,997.1094,261.8076,991.3962,264.9303,996.113,260.2134,999.2357,269.83,997.1094" style="stroke:#000000;stroke-width:1;stroke-linejoin:miter;stroke-miterlimit:10;"/></g><!--link Guest to UC_Home--><g class="link" data-entity-1="ent0001" data-entity-2="ent0010" data-link-type="dependency" data-source-line="68" id="lnk35"><path d="M93.73,1398.7794 C110.74,1423.1794 135.59,1453.1694 164.8,1471.2594 C187.94,1485.5894 211.5796,1493.2263 237.1896,1498.4163" fill="none" id="Guest-to-UC_Home" style="stroke:#000000;stroke-width:1;"/><polygon fill="#000000" points="242.09,1499.4094,234.0638,1493.7015,237.1896,1498.4163,232.4748,1501.5421,242.09,1499.4094" style="stroke:#000000;stroke-width:1;stroke-linejoin:miter;stroke-miterlimit:10;"/></g><!--link Guest to UC_Library--><g class="link" data-entity-1="ent0001" data-entity-2="ent0011" data-link-type="dependency" data-source-line="69" id="lnk36"><path d="M96.5,1359.0294 C128.97,1358.7594 179.7902,1358.3414 226.1702,1357.9514" fill="none" id="Guest-to-UC_Library" style="stroke:#000000;stroke-width:1;"/><polygon fill="#000000" points="231.17,1357.9094,222.1367,1353.9852,226.1702,1357.9514,222.204,1361.9849,231.17,1357.9094" style="stroke:#000000;stroke-width:1;stroke-linejoin:miter;stroke-miterlimit:10;"/></g><!--link Guest to UC_Teachers--><g class="link" data-entity-1="ent0001" data-entity-2="ent0012" data-link-type="dependency" data-source-line="70" id="lnk37"><path d="M96.76,1369.6594 C115.73,1376.7094 141.64,1386.0294 164.8,1393.2594 C190.54,1401.2994 214.3147,1407.9366 239.2747,1414.5066" fill="none" id="Guest-to-UC_Teachers" style="stroke:#000000;stroke-width:1;"/><polygon fill="#000000" points="244.11,1415.7794,236.4247,1409.6202,239.2747,1414.5066,234.3883,1417.3567,244.11,1415.7794" style="stroke:#000000;stroke-width:1;stroke-linejoin:miter;stroke-miterlimit:10;"/></g><!--link Student to UC_Login--><g class="link" data-entity-1="ent0002" data-entity-2="ent0007" data-link-type="dependency" data-source-line="73" id="lnk38"><path d="M95.09,1483.7294 C106.49,1464.1994 118.87,1439.8294 125.8,1416.2594 C153.51,1322.0894 99.86,1049.8594 164.8,976.2594 C185.6,952.6894 214.495,944.7061 244.275,942.3961" fill="none" id="Student-to-UC_Login" style="stroke:#000000;stroke-width:1;"/><polygon fill="#000000" points="249.26,942.0094,239.9776,938.7174,244.275,942.3961,240.5963,946.6934,249.26,942.0094" style="stroke:#000000;stroke-width:1;stroke-linejoin:miter;stroke-miterlimit:10;"/></g><!--link Student to UC_Reg--><g class="link" data-entity-1="ent0002" data-entity-2="ent0006" data-link-type="dependency" data-source-line="74" id="lnk39"><path d="M94.9,1483.6694 C106.26,1464.1294 118.65,1439.7594 125.8,1416.2594 C147.43,1345.1894 120.76,1144.0794 164.8,1084.2594 C189.98,1050.0594 230.4177,1031.4435 263.6577,1020.5735" fill="none" id="Student-to-UC_Reg" style="stroke:#000000;stroke-width:1;"/><polygon fill="#000000" points="268.41,1019.0194,258.6125,1018.0149,263.6577,1020.5735,261.099,1025.6186,268.41,1019.0194" style="stroke:#000000;stroke-width:1;stroke-linejoin:miter;stroke-miterlimit:10;"/></g><!--link Student to UC_Avatar--><g class="link" data-entity-1="ent0002" data-entity-2="ent0008" data-link-type="dependency" data-source-line="75" id="lnk40"><path d="M95.31,1483.7894 C106.76,1464.2794 119.12,1439.8994 125.8,1416.2594 C156.37,1308.1594 87.88,994.1294 164.8,912.2594 C183.14,892.7394 205.4088,884.106 231.2988,879.766" fill="none" id="Student-to-UC_Avatar" style="stroke:#000000;stroke-width:1;"/><polygon fill="#000000" points="236.23,878.9394,226.6925,876.4823,231.2988,879.766,228.0152,884.3723,236.23,878.9394" style="stroke:#000000;stroke-width:1;stroke-linejoin:miter;stroke-miterlimit:10;"/></g><!--link Student to UC_Home--><g class="link" data-entity-1="ent0002" data-entity-2="ent0010" data-link-type="dependency" data-source-line="76" id="lnk41"><path d="M99.53,1531.5594 C116.01,1535.6794 136.87,1540.1994 155.8,1542.2594 C166.12,1543.3794 213.2845,1532.1528 254.0245,1521.7828" fill="none" id="Student-to-UC_Home" style="stroke:#000000;stroke-width:1;"/><polygon fill="#000000" points="258.87,1520.5494,249.1614,1518.8931,254.0245,1521.7828,251.1348,1526.6458,258.87,1520.5494" style="stroke:#000000;stroke-width:1;stroke-linejoin:miter;stroke-miterlimit:10;"/></g><!--link Student to UC_Library--><g class="link" data-entity-1="ent0002" data-entity-2="ent0011" data-link-type="dependency" data-source-line="77" id="lnk42"><path d="M88.64,1483.8794 C104.96,1454.5694 131.09,1415.8594 164.8,1393.2594 C186.44,1378.7494 208.5256,1371.1117 233.3256,1365.9317" fill="none" id="Student-to-UC_Library" style="stroke:#000000;stroke-width:1;"/><polygon fill="#000000" points="238.22,1364.9094,228.5923,1362.834,233.3256,1365.9317,230.228,1370.665,238.22,1364.9094" style="stroke:#000000;stroke-width:1;stroke-linejoin:miter;stroke-miterlimit:10;"/></g><!--link Student to UC_Teachers--><g class="link" data-entity-1="ent0002" data-entity-2="ent0012" data-link-type="dependency" data-source-line="78" id="lnk43"><path d="M99.51,1504.9394 C117.88,1494.3294 142.13,1481.3194 164.8,1472.2594 C189.04,1462.5794 211.6144,1455.6212 236.0244,1449.2012" fill="none" id="Student-to-UC_Teachers" style="stroke:#000000;stroke-width:1;"/><polygon fill="#000000" points="240.86,1447.9294,231.1386,1446.3501,236.0244,1449.2012,233.1734,1454.087,240.86,1447.9294" style="stroke:#000000;stroke-width:1;stroke-linejoin:miter;stroke-miterlimit:10;"/></g><!--link Student to UC_TProfile--><g class="link" data-entity-1="ent0002" data-entity-2="ent0013" data-link-type="dependency" data-source-line="79" id="lnk44"><path d="M99.57,1533.5294 C116.06,1538.9394 136.93,1545.4194 155.8,1550.2594 C181.15,1556.7494 204.2243,1561.7727 229.2943,1566.7127" fill="none" id="Student-to-UC_TProfile" style="stroke:#000000;stroke-width:1;"/><polygon fill="#000000" points="234.2,1567.6794,226.1431,1562.0149,229.2943,1566.7127,224.5965,1569.8639,234.2,1567.6794" style="stroke:#000000;stroke-width:1;stroke-linejoin:miter;stroke-miterlimit:10;"/></g><!--link Student to UC_Enroll--><g class="link" data-entity-1="ent0002" data-entity-2="ent0015" data-link-type="dependency" data-source-line="80" id="lnk45"><path d="M94.42,1483.8094 C105.73,1464.2094 118.23,1439.7394 125.8,1416.2594 C162.6,1302.1194 82.26,1236.2594 164.8,1149.2594 C184.87,1128.1094 210.4856,1119.7952 238.3956,1116.4452" fill="none" id="Student-to-UC_Enroll" style="stroke:#000000;stroke-width:1;"/><polygon fill="#000000" points="243.36,1115.8494,233.9474,1112.9504,238.3956,1116.4452,234.9008,1120.8934,243.36,1115.8494" style="stroke:#000000;stroke-width:1;stroke-linejoin:miter;stroke-miterlimit:10;"/></g><!--link Student to UC_Learn--><g class="link" data-entity-1="ent0002" data-entity-2="ent0016" data-link-type="dependency" data-source-line="81" id="lnk46"><path d="M96.28,1562.5894 C113.18,1583.7094 137.03,1607.7094 164.8,1619.2594 C305.19,1677.6694 418.08,1713.5894 505.61,1589.2594 C516.75,1573.4294 508.8,1434.0094 513.61,1415.2594 C536.64,1325.5194 591.9512,1234.1491 618.1012,1193.9991" fill="none" id="Student-to-UC_Learn" style="stroke:#000000;stroke-width:1;"/><polygon fill="#000000" points="620.83,1189.8094,612.5664,1195.1678,618.1012,1193.9991,619.2699,1199.5339,620.83,1189.8094" style="stroke:#000000;stroke-width:1;stroke-linejoin:miter;stroke-miterlimit:10;"/></g><!--link Student to UC_Active--><g class="link" data-entity-1="ent0002" data-entity-2="ent0017" data-link-type="dependency" data-source-line="82" id="lnk47"><path d="M93.85,1483.6194 C105.03,1463.9794 117.59,1439.5294 125.8,1416.2594 C155.8,1331.2694 102.26,1282.1594 164.8,1217.2594 C184.17,1197.1694 208.0322,1188.6899 234.8822,1184.7799" fill="none" id="Student-to-UC_Active" style="stroke:#000000;stroke-width:1;"/><polygon fill="#000000" points="239.83,1184.0594,230.3475,1181.3981,234.8822,1184.7799,231.5004,1189.3146,239.83,1184.0594" style="stroke:#000000;stroke-width:1;stroke-linejoin:miter;stroke-miterlimit:10;"/></g><!--link Student to UC_Bookmarks--><g class="link" data-entity-1="ent0002" data-entity-2="ent0018" data-link-type="dependency" data-source-line="83" id="lnk48"><path d="M91.27,1483.7894 C102.09,1463.7694 115.09,1438.9494 125.8,1416.2594 C144.94,1375.7294 134.41,1356.1994 164.8,1323.2594 C195.15,1290.3594 238.5021,1271.1264 270.8721,1259.9864" fill="none" id="Student-to-UC_Bookmarks" style="stroke:#000000;stroke-width:1;"/><polygon fill="#000000" points="275.6,1258.3594,265.7882,1257.5058,270.8721,1259.9864,268.3915,1265.0704,275.6,1258.3594" style="stroke:#000000;stroke-width:1;stroke-linejoin:miter;stroke-miterlimit:10;"/></g><!--link Student to UC_CReview--><g class="link" data-entity-1="ent0002" data-entity-2="ent0019" data-link-type="dependency" data-source-line="84" id="lnk49"><path d="M73.31,1562.7494 C82.95,1651.1294 111.09,1860.3894 164.8,1902.2594 C258.68,1975.4294 316.99,1930.5494 432.61,1902.2594 C581.52,1865.8194 747.81,1634.0294 756.3,1619.2594 C849.74,1456.7494 745.46,1359.1894 859.3,1210.2594 C866.74,1200.5294 873.1676,1195.3532 883.8376,1189.7832" fill="none" id="Student-to-UC_CReview" style="stroke:#000000;stroke-width:1;"/><polygon fill="#000000" points="888.27,1187.4694,878.4406,1188.0883,883.8376,1189.7832,882.1427,1195.1802,888.27,1187.4694" style="stroke:#000000;stroke-width:1;stroke-linejoin:miter;stroke-miterlimit:10;"/></g><!--link Student to UC_Cert--><g class="link" data-entity-1="ent0002" data-entity-2="ent0020" data-link-type="dependency" data-source-line="85" id="lnk50"><path d="M70.92,1562.5594 C75.65,1661.2194 93.74,1915.1294 155.8,1966.2594 C386.84,2156.5894 604.42,2163.8194 829.3,1966.2594 C884.89,1917.4294 917.0327,1360.3422 922.3027,1261.9122" fill="none" id="Student-to-UC_Cert" style="stroke:#000000;stroke-width:1;"/><polygon fill="#000000" points="922.57,1256.9194,918.0945,1265.6926,922.3027,1261.9122,926.0831,1266.1204,922.57,1256.9194" style="stroke:#000000;stroke-width:1;stroke-linejoin:miter;stroke-miterlimit:10;"/></g><!--link Student to UC_Forum--><g class="link" data-entity-1="ent0002" data-entity-2="ent0022" data-link-type="dependency" data-source-line="86" id="lnk51"><path d="M78.51,1562.7294 C89.65,1600.8794 112.6,1656.5694 155.8,1682.2594 C289.43,1761.7294 393.55,1790.0294 505.61,1682.2594 C522.04,1666.4594 499.36,1495.0594 513.61,1477.2594 C533.94,1451.8594 566.964,1445.4601 594.844,1444.3401" fill="none" id="Student-to-UC_Forum" style="stroke:#000000;stroke-width:1;"/><polygon fill="#000000" points="599.84,1444.1394,590.6867,1440.5039,594.844,1444.3401,591.0078,1448.4974,599.84,1444.1394" style="stroke:#000000;stroke-width:1;stroke-linejoin:miter;stroke-miterlimit:10;"/></g><!--link Student to UC_Notify--><g class="link" data-entity-1="ent0002" data-entity-2="ent0023" data-link-type="dependency" data-source-line="87" id="lnk52"><path d="M71.23,1562.7194 C76.09,1616.2494 93.56,1710.1494 155.8,1753.2594 C283.61,1841.7794 393.61,1861.0894 505.61,1753.2594 C522.51,1736.9894 499.03,1560.6394 513.61,1542.2594 C527.81,1524.3494 545.8342,1516.513 567.8942,1512.413" fill="none" id="Student-to-UC_Notify" style="stroke:#000000;stroke-width:1;"/><polygon fill="#000000" points="572.81,1511.4994,563.2306,1509.2113,567.8942,1512.413,564.6924,1517.0766,572.81,1511.4994" style="stroke:#000000;stroke-width:1;stroke-linejoin:miter;stroke-miterlimit:10;"/></g><!--link Student to UC_TReview--><g class="link" data-entity-1="ent0002" data-entity-2="ent0024" data-link-type="dependency" data-source-line="88" id="lnk53"><path d="M75.56,1562.6594 C88.37,1638.9994 120.46,1802.4494 164.8,1835.2594 C286.92,1925.6194 389.43,1907.1394 505.61,1809.2594 C573.7,1751.8994 611.2263,1653.4783 625.7963,1608.2683" fill="none" id="Student-to-UC_TReview" style="stroke:#000000;stroke-width:1;"/><polygon fill="#000000" points="627.33,1603.5094,620.7622,1610.8486,625.7963,1608.2683,628.3765,1613.3025,627.33,1603.5094" style="stroke:#000000;stroke-width:1;stroke-linejoin:miter;stroke-miterlimit:10;"/></g><!--link Student to UC_Become--><g class="link" data-entity-1="ent0002" data-entity-2="ent0026" data-link-type="dependency" data-source-line="89" id="lnk54"><path d="M95.4,1483.8094 C106.87,1464.3094 119.22,1439.9294 125.8,1416.2594 C159.96,1293.5194 91.61,948.5394 164.8,844.2594 C186.81,812.9094 220.218,793.9321 251.808,781.0921" fill="none" id="Student-to-UC_Become" style="stroke:#000000;stroke-width:1;"/><polygon fill="#000000" points="256.44,779.2094,246.5962,778.8927,251.808,781.0921,249.6086,786.3039,256.44,779.2094" style="stroke:#000000;stroke-width:1;stroke-linejoin:miter;stroke-miterlimit:10;"/></g><!--link Teacher to UC_Avatar--><g class="link" data-entity-1="ent0003" data-entity-2="ent0008" data-link-type="dependency" data-source-line="92" id="lnk55"><path d="M88.5,656.6294 C113.04,706.7294 153.8,788.1294 164.8,799.2594 C194.03,828.8094 232.2156,848.0927 263.7256,860.8527" fill="none" id="Teacher-to-UC_Avatar" style="stroke:#000000;stroke-width:1;"/><polygon fill="#000000" points="268.36,862.7294,261.5194,855.6437,263.7256,860.8527,258.5167,863.0588,268.36,862.7294" style="stroke:#000000;stroke-width:1;stroke-linejoin:miter;stroke-miterlimit:10;"/></g><!--link Teacher to UC_Library--><g class="link" data-entity-1="ent0003" data-entity-2="ent0011" data-link-type="dependency" data-source-line="93" id="lnk56"><path d="M70.54,656.5694 C74.9,782.9294 93.99,1176.3894 164.8,1278.2594 C187.29,1310.6094 222.7295,1329.2676 255.0695,1341.2076" fill="none" id="Teacher-to-UC_Library" style="stroke:#000000;stroke-width:1;"/><polygon fill="#000000" points="259.76,1342.9394,252.7025,1336.0698,255.0695,1341.2076,249.9317,1343.5746,259.76,1342.9394" style="stroke:#000000;stroke-width:1;stroke-linejoin:miter;stroke-miterlimit:10;"/></g><!--link Teacher to UC_Teachers--><g class="link" data-entity-1="ent0003" data-entity-2="ent0012" data-link-type="dependency" data-source-line="94" id="lnk57"><path d="M73.66,656.8094 C90.55,812.9994 152.53,1379.1294 164.8,1393.2594 C178.55,1409.0894 193.1809,1417.4263 213.3609,1423.3263" fill="none" id="Teacher-to-UC_Teachers" style="stroke:#000000;stroke-width:1;"/><polygon fill="#000000" points="218.16,1424.7294,210.6441,1418.3645,213.3609,1423.3263,208.3991,1426.0431,218.16,1424.7294" style="stroke:#000000;stroke-width:1;stroke-linejoin:miter;stroke-miterlimit:10;"/></g><!--link Teacher to UC_Enroll--><g class="link" data-entity-1="ent0003" data-entity-2="ent0015" data-link-type="dependency" data-source-line="95" id="lnk58"><path d="M74.07,656.5894 C85.73,749.3894 118.58,978.7494 164.8,1039.2594 C189.96,1072.1994 228.6101,1090.9192 261.3601,1102.3692" fill="none" id="Teacher-to-UC_Enroll" style="stroke:#000000;stroke-width:1;"/><polygon fill="#000000" points="266.08,1104.0194,258.9044,1097.2732,261.3601,1102.3692,256.2641,1104.825,266.08,1104.0194" style="stroke:#000000;stroke-width:1;stroke-linejoin:miter;stroke-miterlimit:10;"/></g><!--link Teacher to UC_Learn--><g class="link" data-entity-1="ent0003" data-entity-2="ent0016" data-link-type="dependency" data-source-line="96" id="lnk59"><path d="M69.69,577.8994 C72.49,519.9594 87.28,413.2694 155.8,364.2594 C219.03,319.0394 450.14,309.7994 505.61,364.2594 C514.23,372.7294 511.61,787.3394 513.61,799.2594 C536.89,938.1694 599.7958,1091.68 623.3158,1146.08" fill="none" id="Teacher-to-UC_Learn" style="stroke:#000000;stroke-width:1;"/><polygon fill="#000000" points="625.3,1150.6694,625.3999,1140.821,623.3158,1146.08,618.0568,1143.9958,625.3,1150.6694" style="stroke:#000000;stroke-width:1;stroke-linejoin:miter;stroke-miterlimit:10;"/></g><!--link Teacher to UC_Active--><g class="link" data-entity-1="ent0003" data-entity-2="ent0017" data-link-type="dependency" data-source-line="97" id="lnk60"><path d="M75.24,656.5494 C93.24,776.5494 147.65,1131.1694 164.8,1149.2594 C184.01,1169.5094 207.8516,1178.003 234.7216,1181.893" fill="none" id="Teacher-to-UC_Active" style="stroke:#000000;stroke-width:1;"/><polygon fill="#000000" points="239.67,1182.6094,231.336,1177.3611,234.7216,1181.893,230.1897,1185.2786,239.67,1182.6094" style="stroke:#000000;stroke-width:1;stroke-linejoin:miter;stroke-miterlimit:10;"/></g><!--link Teacher to UC_Bookmarks--><g class="link" data-entity-1="ent0003" data-entity-2="ent0018" data-link-type="dependency" data-source-line="98" id="lnk61"><path d="M70.06,656.7194 C72.9,777.0494 87.78,1136.0394 164.8,1217.2594 C189.41,1243.2094 225.0119,1249.9803 256.9919,1250.8703" fill="none" id="Teacher-to-UC_Bookmarks" style="stroke:#000000;stroke-width:1;"/><polygon fill="#000000" points="261.99,1251.0094,253.1048,1246.7606,256.9919,1250.8703,252.8822,1254.7575,261.99,1251.0094" style="stroke:#000000;stroke-width:1;stroke-linejoin:miter;stroke-miterlimit:10;"/></g><!--link Teacher to UC_Forum--><g class="link" data-entity-1="ent0003" data-entity-2="ent0022" data-link-type="dependency" data-source-line="99" id="lnk62"><path d="M75.57,577.8794 C84.71,534.4094 106.43,466.4694 155.8,435.2594 C221.51,393.7194 450.38,380.5494 505.61,435.2594 C522.25,451.7394 506.31,1256.0094 513.61,1278.2594 C535.33,1344.4794 590.2063,1403.2226 616.8263,1429.1226" fill="none" id="Teacher-to-UC_Forum" style="stroke:#000000;stroke-width:1;"/><polygon fill="#000000" points="620.41,1432.6094,616.7488,1423.4663,616.8263,1429.1226,611.17,1429.2002,620.41,1432.6094" style="stroke:#000000;stroke-width:1;stroke-linejoin:miter;stroke-miterlimit:10;"/></g><!--link Teacher to UC_Notify--><g class="link" data-entity-1="ent0003" data-entity-2="ent0023" data-link-type="dependency" data-source-line="100" id="lnk63"><path d="M94.48,577.7394 C111.3,555.1194 135.67,528.8094 164.8,516.2594 C303.9,456.3094 398.06,409.5994 505.61,516.2594 C524.54,535.0394 497.35,1455.1194 513.61,1476.2594 C527.61,1494.4594 545.7309,1502.3538 567.9209,1506.3938" fill="none" id="Teacher-to-UC_Notify" style="stroke:#000000;stroke-width:1;"/><polygon fill="#000000" points="572.84,1507.2894,564.702,1501.742,567.9209,1506.3938,563.2691,1509.6126,572.84,1507.2894" style="stroke:#000000;stroke-width:1;stroke-linejoin:miter;stroke-miterlimit:10;"/></g><!--link Teacher to UC_Create--><g class="link" data-entity-1="ent0003" data-entity-2="ent0027" data-link-type="dependency" data-source-line="101" id="lnk64"><path d="M126.05,617.2594 C160.46,617.2594 199.62,617.2594 236.02,617.2594" fill="none" id="Teacher-to-UC_Create" style="stroke:#000000;stroke-width:1;"/><polygon fill="#000000" points="241.02,617.2594,232.02,613.2594,236.02,617.2594,232.02,621.2594,241.02,617.2594" style="stroke:#000000;stroke-width:1;stroke-linejoin:miter;stroke-miterlimit:10;"/></g><!--link Teacher to UC_Builder--><g class="link" data-entity-1="ent0003" data-entity-2="ent0028" data-link-type="dependency" data-source-line="102" id="lnk65"><path d="M71.33,577.9294 C77.24,475.8794 98.9,206.7994 164.8,153.2594 C282.55,57.6094 394.55,68.9094 505.61,172.2594 C614.44,273.5294 630.8081,465.3335 633.3081,527.1835" fill="none" id="Teacher-to-UC_Builder" style="stroke:#000000;stroke-width:1;"/><polygon fill="#000000" points="633.51,532.1794,637.1432,523.0252,633.3081,527.1835,629.1498,523.3483,633.51,532.1794" style="stroke:#000000;stroke-width:1;stroke-linejoin:miter;stroke-miterlimit:10;"/></g><!--link Teacher to UC_Manage--><g class="link" data-entity-1="ent0003" data-entity-2="ent0029" data-link-type="dependency" data-source-line="103" id="lnk66"><path d="M126.1,638.4994 C138.76,642.9594 152.18,647.4494 164.8,651.2594 C192.47,659.6094 218.6669,666.3473 244.9069,672.6173" fill="none" id="Teacher-to-UC_Manage" style="stroke:#000000;stroke-width:1;"/><polygon fill="#000000" points="249.77,673.7794,241.9461,667.7972,244.9069,672.6173,240.0868,675.5782,249.77,673.7794" style="stroke:#000000;stroke-width:1;stroke-linejoin:miter;stroke-miterlimit:10;"/></g><!--link Teacher to UC_Grade--><g class="link" data-entity-1="ent0003" data-entity-2="ent0030" data-link-type="dependency" data-source-line="104" id="lnk67"><path d="M71.94,577.8794 C78.71,486.9494 100.57,266.7194 155.8,222.2594 C276.91,124.7794 394.48,113.5394 505.61,222.2594 C520.11,236.4394 501.19,571.2194 513.61,587.2594 C526.43,603.8294 541.8178,611.6163 562.0778,616.2863" fill="none" id="Teacher-to-UC_Grade" style="stroke:#000000;stroke-width:1;"/><polygon fill="#000000" points="566.95,617.4094,559.0784,611.4901,562.0778,616.2863,557.2815,619.2856,566.95,617.4094" style="stroke:#000000;stroke-width:1;stroke-linejoin:miter;stroke-miterlimit:10;"/></g><!--link Teacher to UC_Analytics--><g class="link" data-entity-1="ent0003" data-entity-2="ent0031" data-link-type="dependency" data-source-line="105" id="lnk68"><path d="M74,577.6394 C84.02,499.0394 110.62,327.9694 155.8,293.2594 C217.45,245.8994 450.04,238.8994 505.61,293.2594 C519.99,307.3294 501.29,639.3494 513.61,655.2594 C525.9,671.1394 540.1674,678.7743 559.5774,683.5943" fill="none" id="Teacher-to-UC_Analytics" style="stroke:#000000;stroke-width:1;"/><polygon fill="#000000" points="564.43,684.7994,556.6593,678.7482,559.5774,683.5943,554.7313,686.5124,564.43,684.7994" style="stroke:#000000;stroke-width:1;stroke-linejoin:miter;stroke-miterlimit:10;"/></g><!--link Teacher to UC_TAccount--><g class="link" data-entity-1="ent0003" data-entity-2="ent0032" data-link-type="dependency" data-source-line="106" id="lnk69"><path d="M126.06,595.8894 C138.73,591.4494 152.15,586.9894 164.8,583.2594 C194.8,574.4294 223.9273,567.426 251.4573,561.356" fill="none" id="Teacher-to-UC_TAccount" style="stroke:#000000;stroke-width:1;"/><polygon fill="#000000" points="256.34,560.2794,246.6898,558.311,251.4573,561.356,248.4124,566.1234,256.34,560.2794" style="stroke:#000000;stroke-width:1;stroke-linejoin:miter;stroke-miterlimit:10;"/></g><!--link UC_Enroll to UC_Learn--><g class="link" data-entity-1="ent0015" data-entity-2="ent0016" data-link-type="dependency" data-source-line="109" id="lnk70"><path d="M366.37,1125.4194 C421.14,1134.5994 500.6788,1147.9227 560.0288,1157.8727" fill="none" id="UC_Enroll-to-UC_Learn" style="stroke:#000000;stroke-width:1;stroke-dasharray:7,7;"/><polygon fill="#000000" points="564.96,1158.6994,556.7452,1153.2664,560.0288,1157.8727,555.4225,1161.1562,564.96,1158.6994" style="stroke:#000000;stroke-width:1;stroke-linejoin:miter;stroke-miterlimit:10;"/><text fill="#000000" font-family="Verdana" font-size="13" lengthAdjust="spacing" textLength="63.0068" x="441.61" y="1135.3263">&#171;include&#187;</text></g><!--link UC_Learn to UC_Cert--><g class="link" data-entity-1="ent0016" data-entity-2="ent0020" data-link-type="dependency" data-source-line="110" id="lnk71"><path d="M693.76,1184.7394 C749.49,1198.7094 827.5897,1218.2749 877.0297,1230.6549" fill="none" id="UC_Learn-to-UC_Cert" style="stroke:#000000;stroke-width:1;stroke-dasharray:7,7;"/><polygon fill="#000000" points="881.88,1231.8694,874.1212,1225.803,877.0297,1230.6549,872.1779,1233.5634,881.88,1231.8694" style="stroke:#000000;stroke-width:1;stroke-linejoin:miter;stroke-miterlimit:10;"/><text fill="#000000" font-family="Verdana" font-size="13" lengthAdjust="spacing" textLength="63.0068" x="765.3" y="1200.3263">&#171;include&#187;</text></g><!--link UC_Learn to UC_CReview--><g class="link" data-entity-1="ent0016" data-entity-2="ent0019" data-link-type="dependency" data-source-line="111" id="lnk72"><path d="M720.62,1171.4394 C765,1172.0594 813.4605,1172.7296 854.3305,1173.2996" fill="none" id="UC_Learn-to-UC_CReview" style="stroke:#000000;stroke-width:1;stroke-dasharray:7,7;"/><polygon fill="#000000" points="859.33,1173.3694,850.3867,1169.2443,854.3305,1173.2996,850.2751,1177.2435,859.33,1173.3694" style="stroke:#000000;stroke-width:1;stroke-linejoin:miter;stroke-miterlimit:10;"/><text fill="#000000" font-family="Verdana" font-size="13" lengthAdjust="spacing" textLength="61.1851" x="766.3" y="1168.3263">&#171;extend&#187;</text></g><!--link UC_TProfile to UC_TReview--><g class="link" data-entity-1="ent0013" data-entity-2="ent0024" data-link-type="dependency" data-source-line="112" id="lnk73"><path d="M407.52,1581.2594 C448.43,1581.2594 491.1,1581.2594 532.12,1581.2594" fill="none" id="UC_TProfile-to-UC_TReview" style="stroke:#000000;stroke-width:1;stroke-dasharray:7,7;"/><polygon fill="#000000" points="537.12,1581.2594,528.12,1577.2594,532.12,1581.2594,528.12,1585.2594,537.12,1581.2594" style="stroke:#000000;stroke-width:1;stroke-linejoin:miter;stroke-miterlimit:10;"/><text fill="#000000" font-family="Verdana" font-size="13" lengthAdjust="spacing" textLength="61.1851" x="442.61" y="1577.3263">&#171;extend&#187;</text></g><!--link UC_Create to UC_Builder--><g class="link" data-entity-1="ent0027" data-entity-2="ent0028" data-link-type="dependency" data-source-line="113" id="lnk74"><path d="M364.2,606.5094 C421.18,594.8394 507.1916,577.2224 567.5016,564.8724" fill="none" id="UC_Create-to-UC_Builder" style="stroke:#000000;stroke-width:1;stroke-dasharray:7,7;"/><polygon fill="#000000" points="572.4,563.8694,562.7805,561.7562,567.5016,564.8724,564.3854,569.5936,572.4,563.8694" style="stroke:#000000;stroke-width:1;stroke-linejoin:miter;stroke-miterlimit:10;"/><text fill="#000000" font-family="Verdana" font-size="13" lengthAdjust="spacing" textLength="63.0068" x="441.61" y="575.3263">&#171;include&#187;</text></g><!--link UC_Manage to UC_Grade--><g class="link" data-entity-1="ent0029" data-entity-2="ent0030" data-link-type="dependency" data-source-line="114" id="lnk75"><path d="M374.22,674.4594 C434.53,662.0994 519.8917,644.6227 576.5717,633.0127" fill="none" id="UC_Manage-to-UC_Grade" style="stroke:#000000;stroke-width:1;stroke-dasharray:7,7;"/><polygon fill="#000000" points="581.47,632.0094,571.8504,629.8967,576.5717,633.0127,573.4557,637.734,581.47,632.0094" style="stroke:#000000;stroke-width:1;stroke-linejoin:miter;stroke-miterlimit:10;"/><text fill="#000000" font-family="Verdana" font-size="13" lengthAdjust="spacing" textLength="61.1851" x="442.61" y="645.3263">&#171;extend&#187;</text></g><!--link UC_Manage to UC_Analytics--><g class="link" data-entity-1="ent0029" data-entity-2="ent0031" data-link-type="dependency" data-source-line="115" id="lnk76"><path d="M394.69,687.7694 C446.44,688.0994 507.3801,688.4791 556.9301,688.7791" fill="none" id="UC_Manage-to-UC_Analytics" style="stroke:#000000;stroke-width:1;stroke-dasharray:7,7;"/><polygon fill="#000000" points="561.93,688.8094,552.9544,684.755,556.9301,688.7791,552.9059,692.7548,561.93,688.8094" style="stroke:#000000;stroke-width:1;stroke-linejoin:miter;stroke-miterlimit:10;"/><text fill="#000000" font-family="Verdana" font-size="13" lengthAdjust="spacing" textLength="61.1851" x="442.61" y="684.3263">&#171;extend&#187;</text></g><?plantuml-src XLRTRXj55BxVfnZC1Q2gfUaVBQeY9IPRBbg4cd2D9kk9iyfwDnglKmAgb3ZG2gLIMeg4158XWWT8d1YxJkEymkmhy2HyPtPdrpjhDudyisVExtVE-SOVnEkY9TXcmFtGQM_uuIQNlCLMkRVHb54dRDIZ89BiG_Ukk-3M9pIu5qToETuE1EDFH3jgYOd3Jbjul2tO3mvZYxQhfUlk3NU9JYBP43AJNhznzrRzCqZTA8oN_Uy5cxlfF9tmkGa_l3d3fwl_AZvlthctC6TywbnNew1H2d87GPpOZt7sQBiUy7PRHb6B_RVpArEdQgYEr4coW_Tt-3zYggUEy4ZYywIhngh7r33PLHVuUfQyK0CIqI6a1uuJYBMOnH6JVdCzPWrV2Y_sez1nD7gifbwhSRART9CNDSRRx457jEFyx13oFUJGfr3wV3dkD4HOQFo9LFewzYbYKcfTF9zbtbO4zzQ5T1oAoiCcAgnDb5W3aa32m5fJBrMFIjBb3U3h6TLG0xPpxcttdiQTvPsjgRyGweIAHvexXJe2VrF_zh5eMkg_93zHdknJXg_xwOFHVXWrCNrb_TzIv870G8q8ULCWuNzaB1UsUCmbJ9-MQo5aW2nwDgRq65oCTSSqc6G_gwpNwao7EaUW0sQgqmrzLiJzakQzRFWAi1t3U4WX4KSdFKhsKCCkJKLUhBygkTosh7zFQuFzM9qmTJ6zitYzDNwozhOjHsdbFo8DpC5CHqMdLhwMqPeVY2g6RzGnidzEaC5RVpParAeBFGa8U3vHjecn5Cee2AOcIdFmRpha58IH8KIZ4cA2ItiyNY965nPeLB8FEnCosSz70wks9QQaEj8TFiNdqEWkHj56YyiD6ymtY360_zxqkkgFnPOldbX6XweF9IIdkp0Yo7C38UCgq8SeTWomVuOXvWqrZMU3_GzjABRYdV7fHhBJifJ-Xey-IXnZ0SvIR8kEVnN5_jhs9PLUFZTvxLDMhsIPZyzItVt2lLsfw50lTVSzqufNNkwYyAgxHmWEj4qwHVdUvGjRbuB7eh9qH0fwnO7eA6M_gIEusF43t2iLc2yqEVGCoANGm3uVi4Sy13hJDe0wXKzY2-thcEZ3c3sGl24gat-kUMAevx_4CWKjXZpOZdtFdkS_OFLSRynReaIADeIxVX5nPS7pSA-cKuhEViIAEyhHznExUdM-8EsIY5Y_9D0qMRRAsAyapAcCmfMkFVQn9k9T3V0fv4YLuTf9CpfWLvZUd0cQ-iJ9RibodfQGChL4sLLYINK5jiUi1akSLs7B3SDQyemLRUUQxEpSKYwpf0LhMGU6bsmniOybIzd34cOCOTSntMksaDIwcRz7qCOUElOglK_pxc9shqnPUjF8352hGPRKDCCIvysmv1dejXCDkXql1TsI5g1R1ocIbZ13qf9cP6HxpZZ64cVKOKbJPh0ppjVUHiDijLumzE80T3baOAW-tRx9dlt3LfENa-F5hbqhS6AVi_lt_T0BC0RpyqukpdHeoYvJIIT9QudlOX4sKYMpAKPlPOPUYf_Hod2hnaoHCseQiOghiauEO4dlVm00?></g></svg>